<svg id="Слой_2" data-name="Слой 2" xmlns="http://www.w3.org/2000/svg" viewBox="0 0 1192.11 510.98"><defs><style>.cls-1{fill:#5f99ff;}.cls-2,.cls-7{fill:#0050eb;}.cls-3{fill:none;}.cls-4{font-size:143.73px;fill:#ff2106;}.cls-4,.cls-7{font-family:Candara-Bold, Candara;font-weight:700;}.cls-5{letter-spacing:-0.02em;}.cls-6{letter-spacing:0em;}.cls-7{font-size:30.64px;}</style></defs><title>СФЕРА</title><path class="cls-1" d="M996.2,718.06c533.27-132.74-109.47-586.61-483.79-385.63C902,246,1306.43,535.38,996.2,718.06Z" transform="translate(-43.94 -256.51)"/><path class="cls-1" d="M283,306.88C-252.56,438.82,394,894,769.73,693.52,378.49,779.33-28.38,489.16,283,306.88Z" transform="translate(-43.94 -256.51)"/><path class="cls-2" d="M1143.52,656.24C1527.11,362.81,612,67.33,331.18,411.3,681.88,179.7,1262.19,375.4,1143.52,656.24Z" transform="translate(-43.94 -256.51)"/><path class="cls-2" d="M136.42,367.85C-247,661.37,667.87,956.64,948.57,612.6,598,844.29,17.85,648.72,136.42,367.85Z" transform="translate(-43.94 -256.51)"/><ellipse class="cls-3" cx="598.4" cy="257.24" rx="345.01" ry="167.72"/><text class="cls-4" transform="translate(211.55 293.55) scale(1.78 1)">СФЕ<tspan class="cls-5" x="256.1" y="0">Р</tspan><tspan class="cls-6" x="333.09" y="0">А</tspan></text><text class="cls-7" transform="translate(262.37 337.88) scale(1.27 1)">СЕМЕЙНЫЙ ЗАГОРОДНЫЙ КОМПЛЕКС</text></svg>